<mxfile host="app.diagrams.net" modified="2024-01-23T23:14:23.754Z" agent="Mozilla/5.0 (Windows NT 10.0; Win64; x64) AppleWebKit/537.36 (KHTML, like Gecko) Chrome/120.0.0.0 Safari/537.36" etag="GuF3cyr0TkyEzr24Xsox" version="23.0.0" type="device">
  <diagram name="Page-1" id="0cxLK6B1qZ-80W-4j8hx">
    <mxGraphModel dx="1221" dy="630" grid="0" gridSize="10" guides="1" tooltips="1" connect="1" arrows="1" fold="1" page="0" pageScale="1" pageWidth="850" pageHeight="1100" math="0" shadow="0">
      <root>
        <mxCell id="0" />
        <mxCell id="1" parent="0" />
        <mxCell id="Iu25lgEWChFgaFbriD92-5" value="" style="curved=1;endArrow=classic;html=1;rounded=0;fontSize=14;fontStyle=1;exitX=1;exitY=0.5;exitDx=0;exitDy=0;entryX=0.5;entryY=0;entryDx=0;entryDy=0;" parent="1" source="WK32DhDvXuLAIViGbRyr-48" target="WK32DhDvXuLAIViGbRyr-4" edge="1">
          <mxGeometry width="50" height="50" relative="1" as="geometry">
            <mxPoint x="255" y="230" as="sourcePoint" />
            <mxPoint x="290" y="190" as="targetPoint" />
            <Array as="points">
              <mxPoint x="260" y="210" />
              <mxPoint x="270" y="190" />
            </Array>
          </mxGeometry>
        </mxCell>
        <mxCell id="Iu25lgEWChFgaFbriD92-103" value="&lt;font style=&quot;font-size: 18px;&quot;&gt;Output&lt;/font&gt;" style="rounded=1;whiteSpace=wrap;html=1;fillColor=#f5f5f5;gradientColor=#b3b3b3;strokeColor=#666666;fontSize=14;fontStyle=1;rotation=-90;" parent="1" vertex="1">
          <mxGeometry x="1080" y="293.25" width="90" height="35" as="geometry" />
        </mxCell>
        <mxCell id="Iu25lgEWChFgaFbriD92-123" value="&lt;font style=&quot;font-size: 18px;&quot;&gt;1st half Partitioned Model&lt;/font&gt;" style="text;html=1;align=center;verticalAlign=middle;resizable=0;points=[];autosize=1;strokeColor=none;fillColor=none;fontSize=14;fontStyle=1" parent="1" vertex="1">
          <mxGeometry x="295" y="39" width="237" height="34" as="geometry" />
        </mxCell>
        <mxCell id="Iu25lgEWChFgaFbriD92-145" value="&lt;font style=&quot;font-size: 48px;&quot;&gt;...&lt;/font&gt;" style="text;html=1;align=center;verticalAlign=middle;resizable=0;points=[];autosize=1;strokeColor=none;fillColor=none;fontSize=14;fontStyle=1" parent="1" vertex="1">
          <mxGeometry x="1053" y="266.01" width="60" height="70" as="geometry" />
        </mxCell>
        <mxCell id="Iu25lgEWChFgaFbriD92-146" value="&lt;font style=&quot;font-size: 48px;&quot;&gt;...&lt;/font&gt;" style="text;html=1;align=center;verticalAlign=middle;resizable=0;points=[];autosize=1;strokeColor=none;fillColor=none;fontSize=14;fontStyle=1" parent="1" vertex="1">
          <mxGeometry x="168" y="258" width="60" height="70" as="geometry" />
        </mxCell>
        <mxCell id="WK32DhDvXuLAIViGbRyr-26" style="edgeStyle=orthogonalEdgeStyle;rounded=0;orthogonalLoop=1;jettySize=auto;html=1;exitX=0.5;exitY=1;exitDx=0;exitDy=0;entryX=0.5;entryY=0;entryDx=0;entryDy=0;" parent="1" source="WK32DhDvXuLAIViGbRyr-4" target="WK32DhDvXuLAIViGbRyr-24" edge="1">
          <mxGeometry relative="1" as="geometry" />
        </mxCell>
        <mxCell id="WK32DhDvXuLAIViGbRyr-4" value="&lt;b&gt;&lt;font style=&quot;font-size: 18px;&quot;&gt;Conv&lt;/font&gt;&lt;/b&gt;" style="rounded=1;whiteSpace=wrap;html=1;fillColor=#0038A8;fontColor=#ffffff;strokeColor=#001DBC;rotation=-90;" parent="1" vertex="1">
          <mxGeometry x="276.87" y="169.39" width="65" height="33.74" as="geometry" />
        </mxCell>
        <mxCell id="WK32DhDvXuLAIViGbRyr-28" style="edgeStyle=orthogonalEdgeStyle;rounded=0;orthogonalLoop=1;jettySize=auto;html=1;exitX=0.5;exitY=1;exitDx=0;exitDy=0;entryX=0.5;entryY=0;entryDx=0;entryDy=0;" parent="1" source="WK32DhDvXuLAIViGbRyr-24" target="WK32DhDvXuLAIViGbRyr-49" edge="1">
          <mxGeometry relative="1" as="geometry">
            <mxPoint x="407.5" y="186.25" as="targetPoint" />
          </mxGeometry>
        </mxCell>
        <mxCell id="WK32DhDvXuLAIViGbRyr-24" value="&lt;b&gt;&lt;font style=&quot;font-size: 18px;&quot;&gt;BatchNormalization&lt;/font&gt;&lt;/b&gt;" style="rounded=1;whiteSpace=wrap;html=1;fillColor=#6d8764;fontColor=#ffffff;strokeColor=#3A5431;rotation=-90;" parent="1" vertex="1">
          <mxGeometry x="267.5" y="167.5" width="192.5" height="37.5" as="geometry" />
        </mxCell>
        <mxCell id="WK32DhDvXuLAIViGbRyr-31" style="edgeStyle=orthogonalEdgeStyle;rounded=0;orthogonalLoop=1;jettySize=auto;html=1;exitX=0.5;exitY=1;exitDx=0;exitDy=0;entryX=0.5;entryY=0;entryDx=0;entryDy=0;" parent="1" source="WK32DhDvXuLAIViGbRyr-49" target="WK32DhDvXuLAIViGbRyr-29" edge="1">
          <mxGeometry relative="1" as="geometry">
            <mxPoint x="442.5" y="186.25" as="sourcePoint" />
          </mxGeometry>
        </mxCell>
        <mxCell id="WK32DhDvXuLAIViGbRyr-36" style="edgeStyle=orthogonalEdgeStyle;rounded=0;orthogonalLoop=1;jettySize=auto;html=1;exitX=0.5;exitY=1;exitDx=0;exitDy=0;entryX=0.5;entryY=0;entryDx=0;entryDy=0;" parent="1" source="WK32DhDvXuLAIViGbRyr-29" target="WK32DhDvXuLAIViGbRyr-32" edge="1">
          <mxGeometry relative="1" as="geometry" />
        </mxCell>
        <mxCell id="WK32DhDvXuLAIViGbRyr-29" value="&lt;b&gt;&lt;font style=&quot;font-size: 18px;&quot;&gt;Conv&lt;/font&gt;&lt;/b&gt;" style="rounded=1;whiteSpace=wrap;html=1;fillColor=#0038A8;fontColor=#ffffff;strokeColor=#001DBC;rotation=-90;" parent="1" vertex="1">
          <mxGeometry x="440" y="170.01" width="65" height="33.74" as="geometry" />
        </mxCell>
        <mxCell id="WK32DhDvXuLAIViGbRyr-38" style="edgeStyle=orthogonalEdgeStyle;rounded=0;orthogonalLoop=1;jettySize=auto;html=1;exitX=0.5;exitY=1;exitDx=0;exitDy=0;entryX=0.5;entryY=0;entryDx=0;entryDy=0;" parent="1" source="WK32DhDvXuLAIViGbRyr-32" target="WK32DhDvXuLAIViGbRyr-50" edge="1">
          <mxGeometry relative="1" as="geometry">
            <mxPoint x="590" y="186.88" as="targetPoint" />
          </mxGeometry>
        </mxCell>
        <mxCell id="WK32DhDvXuLAIViGbRyr-32" value="&lt;b&gt;&lt;font style=&quot;font-size: 18px;&quot;&gt;BatchNormalization&lt;/font&gt;&lt;/b&gt;" style="rounded=1;whiteSpace=wrap;html=1;fillColor=#6d8764;fontColor=#ffffff;strokeColor=#3A5431;rotation=-90;" parent="1" vertex="1">
          <mxGeometry x="430" y="168.13" width="192.5" height="37.5" as="geometry" />
        </mxCell>
        <mxCell id="WK32DhDvXuLAIViGbRyr-40" style="edgeStyle=orthogonalEdgeStyle;rounded=0;orthogonalLoop=1;jettySize=auto;html=1;exitX=0.5;exitY=1;exitDx=0;exitDy=0;entryX=-0.013;entryY=0.514;entryDx=0;entryDy=0;entryPerimeter=0;" parent="1" source="WK32DhDvXuLAIViGbRyr-50" target="0bno4nOajrJEfrYTKyAq-38" edge="1">
          <mxGeometry relative="1" as="geometry">
            <mxPoint x="625" y="186.88" as="sourcePoint" />
            <mxPoint x="622" y="186" as="targetPoint" />
          </mxGeometry>
        </mxCell>
        <mxCell id="WK32DhDvXuLAIViGbRyr-42" style="edgeStyle=orthogonalEdgeStyle;rounded=0;orthogonalLoop=1;jettySize=auto;html=1;exitX=0.5;exitY=1;exitDx=0;exitDy=0;entryX=0.5;entryY=0;entryDx=0;entryDy=0;" parent="1" source="WK32DhDvXuLAIViGbRyr-39" target="WK32DhDvXuLAIViGbRyr-41" edge="1">
          <mxGeometry relative="1" as="geometry" />
        </mxCell>
        <mxCell id="WK32DhDvXuLAIViGbRyr-41" value="&lt;b&gt;&lt;font style=&quot;font-size: 18px;&quot;&gt;BatchNormalization&lt;/font&gt;&lt;/b&gt;" style="rounded=1;whiteSpace=wrap;html=1;fillColor=#6d8764;fontColor=#ffffff;strokeColor=#3A5431;rotation=-90;" parent="1" vertex="1">
          <mxGeometry x="838" y="170.01" width="192.5" height="37.5" as="geometry" />
        </mxCell>
        <mxCell id="WK32DhDvXuLAIViGbRyr-45" value="" style="curved=1;endArrow=classic;html=1;rounded=0;exitX=0.5;exitY=1;exitDx=0;exitDy=0;fontSize=14;fontStyle=1;entryX=1;entryY=0.5;entryDx=0;entryDy=0;" parent="1" source="WK32DhDvXuLAIViGbRyr-41" target="WK32DhDvXuLAIViGbRyr-46" edge="1">
          <mxGeometry width="50" height="50" relative="1" as="geometry">
            <mxPoint x="650.0000000000001" y="192.51" as="sourcePoint" />
            <mxPoint x="700" y="322.51" as="targetPoint" />
            <Array as="points">
              <mxPoint x="1038" y="193.51" />
            </Array>
          </mxGeometry>
        </mxCell>
        <mxCell id="WK32DhDvXuLAIViGbRyr-46" value="&lt;b&gt;&lt;font style=&quot;font-size: 18px;&quot;&gt;Sum&lt;/font&gt;&lt;/b&gt;" style="rounded=1;whiteSpace=wrap;html=1;fillColor=#76608a;fontColor=#ffffff;strokeColor=#432D57;rotation=-90;" parent="1" vertex="1">
          <mxGeometry x="1009" y="294.51" width="65" height="33.74" as="geometry" />
        </mxCell>
        <mxCell id="WK32DhDvXuLAIViGbRyr-48" value="&lt;b&gt;&lt;font style=&quot;font-size: 18px;&quot;&gt;Relu&lt;/font&gt;&lt;/b&gt;" style="rounded=1;whiteSpace=wrap;html=1;fillColor=#a20025;fontColor=#ffffff;strokeColor=#6F0000;rotation=-90;" parent="1" vertex="1">
          <mxGeometry x="213.87" y="276.13" width="65" height="33.74" as="geometry" />
        </mxCell>
        <mxCell id="WK32DhDvXuLAIViGbRyr-49" value="&lt;b&gt;&lt;font style=&quot;font-size: 18px;&quot;&gt;Relu&lt;/font&gt;&lt;/b&gt;" style="rounded=1;whiteSpace=wrap;html=1;fillColor=#a20025;fontColor=#ffffff;strokeColor=#6F0000;rotation=-90;" parent="1" vertex="1">
          <mxGeometry x="385" y="170.01" width="65" height="33.74" as="geometry" />
        </mxCell>
        <mxCell id="WK32DhDvXuLAIViGbRyr-50" value="&lt;b&gt;&lt;font style=&quot;font-size: 18px;&quot;&gt;Relu&lt;/font&gt;&lt;/b&gt;" style="rounded=1;whiteSpace=wrap;html=1;fillColor=#a20025;fontColor=#ffffff;strokeColor=#6F0000;rotation=-90;" parent="1" vertex="1">
          <mxGeometry x="550" y="170.01" width="65" height="33.74" as="geometry" />
        </mxCell>
        <mxCell id="WK32DhDvXuLAIViGbRyr-145" value="" style="strokeWidth=2;html=1;shape=mxgraph.flowchart.annotation_1;align=left;pointerEvents=1;direction=south;fontSize=14;fontStyle=1" parent="1" vertex="1">
          <mxGeometry x="118" y="73" width="580" height="50" as="geometry" />
        </mxCell>
        <mxCell id="0bno4nOajrJEfrYTKyAq-6" style="edgeStyle=orthogonalEdgeStyle;rounded=0;orthogonalLoop=1;jettySize=auto;html=1;exitX=0.5;exitY=1;exitDx=0;exitDy=0;entryX=0.5;entryY=0;entryDx=0;entryDy=0;" parent="1" edge="1">
          <mxGeometry relative="1" as="geometry">
            <mxPoint x="347" y="393.75" as="targetPoint" />
          </mxGeometry>
        </mxCell>
        <mxCell id="0bno4nOajrJEfrYTKyAq-8" style="edgeStyle=orthogonalEdgeStyle;rounded=0;orthogonalLoop=1;jettySize=auto;html=1;exitX=0.5;exitY=1;exitDx=0;exitDy=0;entryX=0.5;entryY=0;entryDx=0;entryDy=0;" parent="1" edge="1">
          <mxGeometry relative="1" as="geometry">
            <mxPoint x="402.6300000000001" y="394.3799999999999" as="targetPoint" />
          </mxGeometry>
        </mxCell>
        <mxCell id="0bno4nOajrJEfrYTKyAq-11" style="edgeStyle=orthogonalEdgeStyle;rounded=0;orthogonalLoop=1;jettySize=auto;html=1;exitX=0.5;exitY=1;exitDx=0;exitDy=0;entryX=0.5;entryY=0;entryDx=0;entryDy=0;" parent="1" edge="1">
          <mxGeometry relative="1" as="geometry">
            <mxPoint x="509.5" y="394.3800000000001" as="targetPoint" />
          </mxGeometry>
        </mxCell>
        <mxCell id="0bno4nOajrJEfrYTKyAq-13" style="edgeStyle=orthogonalEdgeStyle;rounded=0;orthogonalLoop=1;jettySize=auto;html=1;exitX=0.5;exitY=1;exitDx=0;exitDy=0;entryX=0.5;entryY=0;entryDx=0;entryDy=0;" parent="1" edge="1">
          <mxGeometry relative="1" as="geometry">
            <mxPoint x="567.6300000000001" y="394.3799999999999" as="targetPoint" />
          </mxGeometry>
        </mxCell>
        <mxCell id="0bno4nOajrJEfrYTKyAq-16" style="edgeStyle=orthogonalEdgeStyle;rounded=0;orthogonalLoop=1;jettySize=auto;html=1;exitX=0.5;exitY=1;exitDx=0;exitDy=0;entryX=0.5;entryY=0;entryDx=0;entryDy=0;" parent="1" source="0bno4nOajrJEfrYTKyAq-17" target="0bno4nOajrJEfrYTKyAq-18" edge="1">
          <mxGeometry relative="1" as="geometry" />
        </mxCell>
        <mxCell id="0bno4nOajrJEfrYTKyAq-17" value="&lt;b&gt;&lt;font style=&quot;font-size: 18px;&quot;&gt;Conv&lt;/font&gt;&lt;/b&gt;" style="rounded=1;whiteSpace=wrap;html=1;fillColor=#0038A8;fontColor=#ffffff;strokeColor=#001DBC;rotation=-90;" parent="1" vertex="1">
          <mxGeometry x="276.87" y="383.88" width="65" height="33.74" as="geometry" />
        </mxCell>
        <mxCell id="0bno4nOajrJEfrYTKyAq-18" value="&lt;b&gt;&lt;font style=&quot;font-size: 18px;&quot;&gt;BatchNormalization&lt;/font&gt;&lt;/b&gt;" style="rounded=1;whiteSpace=wrap;html=1;fillColor=#6d8764;fontColor=#ffffff;strokeColor=#3A5431;rotation=-90;" parent="1" vertex="1">
          <mxGeometry x="267.5" y="382" width="192.5" height="37.5" as="geometry" />
        </mxCell>
        <mxCell id="0bno4nOajrJEfrYTKyAq-19" value="" style="curved=1;endArrow=classic;html=1;rounded=0;fontSize=14;fontStyle=1;entryX=0;entryY=0.5;entryDx=0;entryDy=0;exitX=1.004;exitY=0.559;exitDx=0;exitDy=0;exitPerimeter=0;" parent="1" source="0bno4nOajrJEfrYTKyAq-40" target="WK32DhDvXuLAIViGbRyr-46" edge="1">
          <mxGeometry width="50" height="50" relative="1" as="geometry">
            <mxPoint x="779" y="403.51" as="sourcePoint" />
            <mxPoint x="705" y="478.01" as="targetPoint" />
            <Array as="points">
              <mxPoint x="923" y="407" />
              <mxPoint x="1035" y="390.51" />
            </Array>
          </mxGeometry>
        </mxCell>
        <mxCell id="0bno4nOajrJEfrYTKyAq-22" value="" style="curved=1;endArrow=classic;html=1;rounded=0;fontSize=14;fontStyle=1;exitX=0;exitY=0.5;exitDx=0;exitDy=0;entryX=0.5;entryY=0;entryDx=0;entryDy=0;" parent="1" source="WK32DhDvXuLAIViGbRyr-48" target="0bno4nOajrJEfrYTKyAq-17" edge="1">
          <mxGeometry width="50" height="50" relative="1" as="geometry">
            <mxPoint x="266" y="276" as="sourcePoint" />
            <mxPoint x="294.5" y="393.75999999999976" as="targetPoint" />
            <Array as="points">
              <mxPoint x="255" y="380" />
              <mxPoint x="273" y="395" />
            </Array>
          </mxGeometry>
        </mxCell>
        <mxCell id="WK32DhDvXuLAIViGbRyr-39" value="&lt;b&gt;&lt;font style=&quot;font-size: 18px;&quot;&gt;Conv&lt;/font&gt;&lt;/b&gt;" style="rounded=1;whiteSpace=wrap;html=1;fillColor=#0038A8;fontColor=#ffffff;strokeColor=#001DBC;rotation=-90;" parent="1" vertex="1">
          <mxGeometry x="799" y="171.89" width="65" height="33.74" as="geometry" />
        </mxCell>
        <mxCell id="0bno4nOajrJEfrYTKyAq-44" style="edgeStyle=orthogonalEdgeStyle;rounded=0;orthogonalLoop=1;jettySize=auto;html=1;" parent="1" source="0bno4nOajrJEfrYTKyAq-24" target="0bno4nOajrJEfrYTKyAq-40" edge="1">
          <mxGeometry relative="1" as="geometry">
            <Array as="points">
              <mxPoint x="707" y="438" />
              <mxPoint x="750" y="438" />
            </Array>
          </mxGeometry>
        </mxCell>
        <mxCell id="0bno4nOajrJEfrYTKyAq-45" style="edgeStyle=orthogonalEdgeStyle;rounded=0;orthogonalLoop=1;jettySize=auto;html=1;entryX=0.45;entryY=0.969;entryDx=0;entryDy=0;entryPerimeter=0;" parent="1" source="0bno4nOajrJEfrYTKyAq-24" target="0bno4nOajrJEfrYTKyAq-34" edge="1">
          <mxGeometry relative="1" as="geometry">
            <Array as="points">
              <mxPoint x="707" y="438" />
              <mxPoint x="662" y="438" />
            </Array>
          </mxGeometry>
        </mxCell>
        <mxCell id="0bno4nOajrJEfrYTKyAq-24" value="&lt;font style=&quot;font-size: 18px;&quot;&gt;conv5_1_1x1_proj/bn&lt;/font&gt;" style="text;html=1;align=center;verticalAlign=middle;resizable=0;points=[];autosize=1;strokeColor=none;fillColor=none;fontSize=14;fontStyle=1" parent="1" vertex="1">
          <mxGeometry x="606" y="451" width="201" height="34" as="geometry" />
        </mxCell>
        <mxCell id="0bno4nOajrJEfrYTKyAq-42" value="" style="edgeStyle=orthogonalEdgeStyle;rounded=0;orthogonalLoop=1;jettySize=auto;html=1;" parent="1" source="0bno4nOajrJEfrYTKyAq-26" target="0bno4nOajrJEfrYTKyAq-39" edge="1">
          <mxGeometry relative="1" as="geometry">
            <Array as="points">
              <mxPoint x="702" y="224" />
              <mxPoint x="750" y="224" />
            </Array>
          </mxGeometry>
        </mxCell>
        <mxCell id="0bno4nOajrJEfrYTKyAq-43" style="edgeStyle=orthogonalEdgeStyle;rounded=0;orthogonalLoop=1;jettySize=auto;html=1;entryX=0.392;entryY=1.004;entryDx=0;entryDy=0;entryPerimeter=0;" parent="1" source="0bno4nOajrJEfrYTKyAq-26" target="0bno4nOajrJEfrYTKyAq-38" edge="1">
          <mxGeometry relative="1" as="geometry">
            <mxPoint x="706.5" y="224.013916015625" as="targetPoint" />
            <Array as="points">
              <mxPoint x="702" y="224" />
              <mxPoint x="657" y="224" />
            </Array>
          </mxGeometry>
        </mxCell>
        <mxCell id="0bno4nOajrJEfrYTKyAq-26" value="&lt;font style=&quot;font-size: 18px;&quot;&gt;conv5_1_3x3/relu&lt;/font&gt;" style="text;html=1;align=center;verticalAlign=middle;resizable=0;points=[];autosize=1;strokeColor=none;fillColor=none;fontSize=14;fontStyle=1" parent="1" vertex="1">
          <mxGeometry x="622.5" y="236" width="168" height="34" as="geometry" />
        </mxCell>
        <mxCell id="0bno4nOajrJEfrYTKyAq-27" value="&lt;span style=&quot;font-size: 18px;&quot;&gt;Intermediate Layers&lt;/span&gt;" style="text;html=1;align=center;verticalAlign=middle;resizable=0;points=[];autosize=1;strokeColor=none;fillColor=none;fontSize=14;fontStyle=1" parent="1" vertex="1">
          <mxGeometry x="1009" y="379" width="188" height="34" as="geometry" />
        </mxCell>
        <mxCell id="0bno4nOajrJEfrYTKyAq-28" value="" style="endArrow=classic;html=1;rounded=0;" parent="1" edge="1">
          <mxGeometry width="50" height="50" relative="1" as="geometry">
            <mxPoint x="1082" y="385.51" as="sourcePoint" />
            <mxPoint x="1082" y="322.51" as="targetPoint" />
          </mxGeometry>
        </mxCell>
        <mxCell id="0bno4nOajrJEfrYTKyAq-29" value="" style="endArrow=classic;html=1;rounded=0;entryX=0.5;entryY=0;entryDx=0;entryDy=0;" parent="1" target="WK32DhDvXuLAIViGbRyr-39" edge="1">
          <mxGeometry width="50" height="50" relative="1" as="geometry">
            <mxPoint x="780" y="188.51" as="sourcePoint" />
            <mxPoint x="721" y="406.51" as="targetPoint" />
          </mxGeometry>
        </mxCell>
        <mxCell id="0bno4nOajrJEfrYTKyAq-31" value="" style="endArrow=classic;html=1;rounded=0;exitX=0.5;exitY=1;exitDx=0;exitDy=0;" parent="1" edge="1">
          <mxGeometry width="50" height="50" relative="1" as="geometry">
            <mxPoint x="382.5" y="400.75" as="sourcePoint" />
            <mxPoint x="626" y="401" as="targetPoint" />
          </mxGeometry>
        </mxCell>
        <mxCell id="0bno4nOajrJEfrYTKyAq-34" value="&lt;span style=&quot;font-size: 18px;&quot;&gt;Output&lt;/span&gt;" style="text;html=1;align=center;verticalAlign=middle;resizable=0;points=[];autosize=1;strokeColor=none;fillColor=none;fontSize=14;fontStyle=1" parent="1" vertex="1">
          <mxGeometry x="627" y="385.5" width="77" height="34" as="geometry" />
        </mxCell>
        <mxCell id="0bno4nOajrJEfrYTKyAq-35" value="&lt;font style=&quot;font-size: 18px;&quot;&gt;2nd half Partitioned Model&lt;/font&gt;" style="text;html=1;align=center;verticalAlign=middle;resizable=0;points=[];autosize=1;strokeColor=none;fillColor=none;fontSize=14;fontStyle=1" parent="1" vertex="1">
          <mxGeometry x="812.75" y="39" width="243" height="34" as="geometry" />
        </mxCell>
        <mxCell id="0bno4nOajrJEfrYTKyAq-36" value="" style="strokeWidth=2;html=1;shape=mxgraph.flowchart.annotation_1;align=left;pointerEvents=1;direction=south;fontSize=14;fontStyle=1" parent="1" vertex="1">
          <mxGeometry x="729.75" y="73" width="409" height="50" as="geometry" />
        </mxCell>
        <mxCell id="0bno4nOajrJEfrYTKyAq-38" value="&lt;span style=&quot;font-size: 18px;&quot;&gt;Output&lt;/span&gt;" style="text;html=1;align=center;verticalAlign=middle;resizable=0;points=[];autosize=1;strokeColor=none;fillColor=none;fontSize=14;fontStyle=1" parent="1" vertex="1">
          <mxGeometry x="627" y="169.88" width="77" height="34" as="geometry" />
        </mxCell>
        <mxCell id="0bno4nOajrJEfrYTKyAq-39" value="&lt;span style=&quot;font-size: 18px;&quot;&gt;Input&lt;/span&gt;" style="text;html=1;align=center;verticalAlign=middle;resizable=0;points=[];autosize=1;strokeColor=none;fillColor=none;fontSize=14;fontStyle=1" parent="1" vertex="1">
          <mxGeometry x="719" y="171.63" width="62" height="34" as="geometry" />
        </mxCell>
        <mxCell id="0bno4nOajrJEfrYTKyAq-40" value="&lt;span style=&quot;font-size: 18px;&quot;&gt;Input&lt;/span&gt;" style="text;html=1;align=center;verticalAlign=middle;resizable=0;points=[];autosize=1;strokeColor=none;fillColor=none;fontSize=14;fontStyle=1" parent="1" vertex="1">
          <mxGeometry x="719" y="385.5" width="62" height="34" as="geometry" />
        </mxCell>
        <mxCell id="Wj7aocxB3jck4Vxco_qs-1" value="&lt;font style=&quot;font-size: 18px;&quot;&gt;Input&lt;/font&gt;" style="rounded=1;whiteSpace=wrap;html=1;fillColor=#f5f5f5;gradientColor=#b3b3b3;strokeColor=#666666;fontSize=14;fontStyle=1;rotation=-90;" vertex="1" parent="1">
          <mxGeometry x="112" y="283.51" width="90" height="35" as="geometry" />
        </mxCell>
      </root>
    </mxGraphModel>
  </diagram>
</mxfile>
